SplineFontDB: 1.0
FontName: Untitled3
FullName: Untitled3
FamilyName: Untitled3
Weight: Medium
Copyright: Created by 狩野 宏樹 with PfaEdit 1.0 (http://pfaedit.sf.net)
Comments: 2003-6-21: Created.
Version: 001.000
ItalicAngle: 0
UnderlinePosition: -100
UnderlineWidth: 50
Ascent: 800
Descent: 200
NeedsXUIDChange: 1
Encoding: unicode
DisplaySize: -48
AntiAlias: 1
WinInfo: 1056 16 4
BeginChars: 65536 94
StartChar: Alpha
Encoding: 913 913 65535
Width: 1024
VWidth: 1024
Flags: HW
Fore
838 -12 m 1
 734 -12 l 1
 653 210 l 1
 349 210 l 1
 268 -12 l 1
 164 -12 l 1
 443 750 l 1
 559 750 l 1
 838 -12 l 1
382 300 m 1
 620 300 l 1
 505 614 l 1
 497 614 l 1
 382 300 l 1
EndSplineSet
EndChar
StartChar: Beta
Encoding: 914 914 65535
Width: 1024
VWidth: 1024
Flags: HW
Fore
264 -12 m 1
 264 750 l 1
 496 750 l 2
 597.333 750 672 732.667 720 698 c 0
 767.333 663.333 791 613 791 547 c 2
 791 546 l 2
 791 490 760.667 438.667 700 392 c 1
 777.333 345.333 816.333 287 817 217 c 1
 817 216 l 2
 817 149.333 793.333 94.6667 746 52 c 0
 698 9.33333 612 -12 488 -12 c 2
 264 -12 l 1
713 216 m 2
 713 259.333 695.333 291.333 660 312 c 0
 624 332 562.667 342 476 342 c 2
 362 342 l 1
 362 78 l 1
 488 78 l 2
 580.667 78 641.333 92 670 120 c 0
 698.667 147.333 713 179 713 215 c 2
 713 216 l 2
687 546 m 2
 687 582.667 674 610.667 648 630 c 0
 622 650 571.333 660 496 660 c 2
 362 660 l 1
 362 432 l 1
 476 432 l 2
 562.667 432 619.333 442 646 462 c 0
 673.333 481.333 687 509 687 545 c 2
 687 546 l 2
EndSplineSet
EndChar
StartChar: Gamma
Encoding: 915 915 65535
Width: 1024
VWidth: 1024
Flags: HW
Fore
832 751 m 1
 265 750 l 1
 265 -12 l 1
 365 -12 l 1
 365 660 l 1
 831 660 l 1
 832 751 l 1
EndSplineSet
EndChar
StartChar: uni0394
Encoding: 916 916 65535
Width: 1024
VWidth: 1024
Flags: HW
Fore
859 -12 m 1
 162 -12 l 1
 162 78 l 1
 449 750 l 1
 557 750 l 1
 859 77 l 1
 859 -12 l 1
266 77 m 1
 743 77 l 1
 507 643 l 1
 499 643 l 1
 266 77 l 1
EndSplineSet
EndChar
StartChar: Epsilon
Encoding: 917 917 65535
Width: 1024
VWidth: 1024
Flags: HW
Fore
262 -12 m 1
 262 750 l 1
 804 750 l 1
 804 660 l 1
 360 660 l 1
 360 432 l 1
 744 432 l 1
 744 342 l 1
 360 342 l 1
 360 78 l 1
 804 78 l 1
 804 -12 l 1
 262 -12 l 1
EndSplineSet
EndChar
StartChar: Zeta
Encoding: 918 918 65535
Width: 1024
VWidth: 1024
Flags: HW
Fore
226 750 m 1
 760 750 l 1
 760 660 l 1
 296 78 l 1
 814 78 l 1
 814 -12 l 1
 172 -12 l 1
 172 78 l 1
 636 660 l 1
 226 660 l 1
 226 750 l 1
EndSplineSet
EndChar
StartChar: Eta
Encoding: 919 919 65535
Width: 1024
VWidth: 1024
Flags: HW
Fore
328 -12 m 1
 230 -12 l 1
 230 750 l 1
 328 750 l 1
 328 432 l 1
 716 432 l 1
 716 750 l 1
 814 750 l 1
 814 -12 l 1
 716 -12 l 1
 716 342 l 1
 328 342 l 1
 328 -12 l 1
EndSplineSet
EndChar
StartChar: Theta
Encoding: 920 920 65535
Width: 1024
VWidth: 1024
Flags: HW
Fore
128 378 m 0
 128 478 165.167 566 239.5 642 c 128
 313.833 718 405.667 756 515 756 c 128
 624.333 756 713.667 718 783 642 c 128
 852.333 566 887 478 887 378 c 0
 887 271.333 852.333 180 783 104 c 128
 713.667 28 624.333 -10 515 -10 c 128
 405.667 -10 313.833 28 239.5 104 c 0
 165.167 180 128 271.333 128 378 c 0
232 377 m 0
 232 279 261 203.5 319 150.5 c 128
 377 97.5 442.333 71 515 71 c 128
 587.667 71 650.5 97.5 703.5 150.5 c 128
 756.5 203.5 783 279 783 377 c 0
 783 473 756.5 546.667 703.5 598 c 128
 650.5 649.333 587.667 675 515 675 c 128
 442.333 675 377 649.333 319 598 c 128
 261 546.667 232 473 232 377 c 0
337 429 m 1
 685 429 l 1
 685 336 l 1
 337 336 l 1
 337 429 l 1
EndSplineSet
EndChar
StartChar: Iota
Encoding: 921 921 65535
Width: 1024
VWidth: 1024
Flags: HW
Fore
554 -12 m 1
 456 -12 l 1
 456 750 l 1
 554 750 l 1
 554 -12 l 1
EndSplineSet
EndChar
StartChar: Kappa
Encoding: 922 922 65535
Width: 1024
VWidth: 1024
Flags: HW
Fore
330 -12 m 1
 232 -12 l 1
 232 750 l 1
 330 750 l 1
 330 387 l 1
 676 750 l 1
 806 750 l 1
 561 497 l 1
 880 -12 l 1
 754 -12 l 1
 489 423 l 1
 330 259 l 1
 330 -12 l 1
EndSplineSet
EndChar
StartChar: Lambda
Encoding: 923 923 65535
Width: 1024
VWidth: 1024
Flags: HW
Fore
838 -12 m 1
 734 -12 l 1
 508 615 l 1
 498 615 l 1
 268 -12 l 1
 164 -12 l 1
 443 750 l 1
 559 750 l 1
 838 -12 l 1
EndSplineSet
EndChar
StartChar: Mu
Encoding: 924 924 65535
Width: 1024
VWidth: 1024
Flags: HW
Fore
204 -12 m 1
 106 -12 l 1
 106 750 l 1
 229 750 l 1
 508 174 l 1
 518 174 l 1
 769 750 l 1
 892 750 l 1
 892 -12 l 1
 794 -12 l 1
 794 552 l 1
 788 552 l 1
 545 -9 l 1
 481 -9 l 1
 210 552 l 1
 204 552 l 1
 204 -12 l 1
EndSplineSet
EndChar
StartChar: Nu
Encoding: 925 925 65535
Width: 1024
VWidth: 1024
Flags: HW
Fore
282 -12 m 1
 184 -12 l 1
 184 750 l 1
 307 750 l 1
 701 147 l 1
 702 140 l 1
 702 750 l 1
 800 750 l 1
 800 -12 l 1
 677 -12 l 1
 283 596 l 1
 282 600 l 1
 282 -12 l 1
EndSplineSet
EndChar
StartChar: Xi
Encoding: 926 926 65535
Width: 1024
VWidth: 1024
Flags: HW
Fore
192 -13 m 1
 192 90 l 1
 820 90 l 1
 820 -13 l 1
 192 -13 l 1
192 656 m 1
 192 750 l 1
 820 750 l 1
 820 656 l 1
 192 656 l 1
274 426 m 1
 746 426 l 1
 746 326 l 1
 274 326 l 1
 274 426 l 1
EndSplineSet
EndChar
StartChar: Omicron
Encoding: 927 927 65535
Width: 1024
VWidth: 1024
Flags: HW
Fore
128 380 m 0
 128 478.667 165.167 566 239.5 642 c 128
 313.833 718 405.667 756 515 756 c 128
 624.333 756 713.667 718 783 642 c 128
 852.333 566 887 478.667 887 380 c 0
 887 272 852.333 180 783 104 c 128
 713.667 28 624.333 -10 515 -10 c 128
 405.667 -10 313.833 28 239.5 104 c 0
 165.167 180 128 272 128 380 c 0
232 380 m 0
 232 280 261 203.5 319 150.5 c 128
 377 97.5 442.333 71 515 71 c 128
 587.667 71 650.5 97.5 703.5 150.5 c 128
 756.5 203.5 783 280 783 380 c 0
 783 474 756.5 546.667 703.5 598 c 128
 650.5 649.333 587.667 675 515 675 c 128
 442.333 675 377 649.333 319 598 c 128
 261 546.667 232 474 232 380 c 0
EndSplineSet
EndChar
StartChar: Pi
Encoding: 928 928 65535
Width: 1024
VWidth: 1024
Flags: HW
Fore
328 -12 m 1
 230 -12 l 1
 230 750 l 1
 814 750 l 1
 814 -12 l 1
 716 -12 l 1
 716 661 l 1
 328 661 l 1
 328 -12 l 1
EndSplineSet
EndChar
StartChar: Rho
Encoding: 929 929 65535
Width: 1024
VWidth: 1024
Flags: HW
Fore
394 -12 m 1
 296 -12 l 1
 296 750 l 1
 560 750 l 2
 668 750 743.167 732 785.5 696 c 128
 827.833 660 849 610.333 849 547 c 0
 849 482.333 827.833 432 785.5 396 c 128
 743.167 360 668 342 560 342 c 2
 394 342 l 1
 394 -12 l 1
745 547 m 0
 745 585.667 733.333 614.167 710 632.5 c 128
 686.667 650.833 636.667 660 560 660 c 2
 394 660 l 1
 394 432 l 1
 560 432 l 2
 636.667 432 686.667 441.167 710 459.5 c 128
 733.333 477.833 745 507 745 547 c 0
EndSplineSet
EndChar
StartChar: Sigma
Encoding: 931 931 65535
Width: 1024
VWidth: 1024
Flags: HW
Fore
199 751 m 1
 791 751 l 1
 791 660 l 1
 326 660 l 1
 326 659 l 1
 574 395 l 1
 574 366 l 1
 325 86 l 1
 793 86 l 1
 793 -8 l 1
 198 -8 l 1
 196 81 l 1
 453 382 l 1
 197 666 l 1
 199 751 l 1
EndSplineSet
EndChar
StartChar: Tau
Encoding: 932 932 65535
Width: 1024
VWidth: 1024
Flags: HW
Fore
554 -12 m 1
 456 -12 l 1
 456 660 l 1
 150 660 l 1
 150 750 l 1
 862 750 l 1
 862 660 l 1
 554 660 l 1
 554 -12 l 1
EndSplineSet
EndChar
StartChar: Upsilon
Encoding: 933 933 65535
Width: 1024
VWidth: 1024
Flags: HW
Fore
307 674 m 0
 262.333 674 232.5 664.167 217.5 644.5 c 128
 202.5 624.833 195 591.667 195 545 c 1
 110 545 l 1
 110 587 l 1
 112.667 631 131.5 670 166.5 704 c 128
 201.5 738 245.333 755 298 755 c 0
 360.667 755 407 743.5 437 720.5 c 128
 467 697.5 492.333 665.667 513 625 c 1
 533.667 665.667 559 697.5 589 720.5 c 128
 619 743.5 665.333 755 728 755 c 0
 780.667 755 824.5 738 859.5 704 c 128
 894.5 670 913.333 631 916 587 c 1
 916 545 l 1
 831 545 l 1
 831 591.667 823.5 624.833 808.5 644.5 c 128
 793.5 664.167 763.667 674 719 674 c 0
 661.667 674 620.667 647.833 596 595.5 c 128
 571.333 543.167 559 472.667 559 384 c 2
 559 -12 l 1
 467 -12 l 1
 467 384 l 2
 467 472.667 454.667 543.167 430 595.5 c 128
 405.333 647.833 364.333 674 307 674 c 0
EndSplineSet
EndChar
StartChar: Phi
Encoding: 934 934 65535
Width: 1024
VWidth: 1024
Flags: HW
Fore
348 219 m 2
 392 189 428 171.667 456 167 c 1
 456 570 l 1
 426 564.667 390 548 348 520 c 0
 300.667 490 275 444.667 271 384 c 2
 270 368 l 1
 270 306 295 257 345 221 c 2
 348 219 l 2
745 184 m 0
 697.667 148 651.667 125.333 607 116 c 1
 552 109 l 1
 552 -14 l 1
 455 -14 l 1
 455 111 l 1
 399.667 115.667 346.667 135 296 169 c 0
 229.333 213.667 189.667 267.667 177 331 c 0
 174.333 343 173 355.333 173 368 c 2
 173 369 l 2
 173 439 207.333 500.667 276 554 c 0
 332 596.667 392 621.333 456 628 c 1
 456 756 l 1
 554 756 l 1
 554 628 l 1
 632 620 696.333 595.333 747 554 c 0
 813 500 845 438.333 843 369 c 0
 841.667 313.667 818 260.667 772 210 c 0
 762.667 199.333 753.667 190.667 745 184 c 0
679 518 m 0
 640.333 546 598.667 563.333 554 570 c 1
 554 166 l 1
 590 171.333 626.333 186.667 663 212 c 0
 710.333 244 737.333 288.667 744 346 c 1
 745 369 l 1
 745 435.667 723 485.333 679 518 c 0
EndSplineSet
EndChar
StartChar: Chi
Encoding: 935 935 65535
Width: 1024
VWidth: 1024
Flags: HW
Fore
892 -12 m 1
 770 -12 l 1
 514 324 l 1
 280 -12 l 1
 158 -12 l 1
 451 407 l 1
 190 750 l 1
 312 750 l 1
 536 456 l 1
 744 750 l 1
 866 750 l 1
 599 372 l 1
 892 -12 l 1
EndSplineSet
EndChar
StartChar: Psi
Encoding: 936 936 65535
Width: 1024
VWidth: 1024
Flags: HW
Fore
554 756 m 1
 554 192 l 1
 586 197.333 622 214.667 662 244 c 0
 703.333 274.667 729.333 324.333 740 393 c 1
 741 668 l 1
 838 668 l 1
 837 394 l 1
 837 324.667 803 263 735 209 c 2
 734 209 l 2
 732.667 208.333 731.667 207.333 731 206 c 2
 714 194 l 2
 663.333 160 610.333 140.667 555 136 c 1
 555 -14 l 1
 455 -14 l 1
 455 136 l 1
 399.667 140.667 346.667 160 296 194 c 0
 229.333 238.667 189.667 292.667 177 356 c 0
 174.333 368 173 380.333 173 393 c 2
 173 394 l 1
 173 668 l 1
 270 668 l 1
 270 393 l 1
 280.667 322.333 306.333 273 347 245 c 2
 348 244 l 2
 392 214 428 196.667 456 192 c 1
 456 756 l 1
 554 756 l 1
EndSplineSet
EndChar
StartChar: uni03A9
Encoding: 937 937 65535
Width: 1024
VWidth: 1024
Flags: HW
Fore
515 756 m 0
 408.333 756 320 718.333 250 643 c 0
 180 567 144.667 478.333 144 377 c 1
 144 376 l 2
 144 260 188.667 160.667 278 78 c 1
 79 78 l 1
 79 -10 l 1
 439 -10 l 1
 439 78 l 1
 401.667 88.6667 365 111.333 329 146 c 0
 274.333 198.667 246.667 274.667 246 374 c 1
 246 375 l 2
 246 472.333 273.667 546.667 329 598 c 1
 375.667 637.333 418 660.667 456 668 c 0
 472 671.333 491.667 673 515 673 c 0
 585.667 673 647.667 648 701 598 c 0
 755.667 546.667 783.333 472.667 784 376 c 1
 784 375 l 2
 784 275 756.333 198.667 701 146 c 0
 671 116.667 644 97.3333 620 88 c 0
 612.667 84.6667 605 82 597 80 c 0
 595.667 79.3333 594.333 79 593 79 c 0
 592.333 78.3333 591.667 78 591 78 c 1
 591 -10 l 1
 958 -10 l 1
 958 80 l 1
 756 80 l 1
 842 159.333 885.333 257.667 886 375 c 1
 886 376 l 2
 886 478 850.667 567 780 643 c 0
 710 718.333 621.667 756 515 756 c 0
EndSplineSet
EndChar
StartChar: afii10023
Encoding: 1025 1025 65535
Width: 1024
VWidth: 1024
Flags: HW
Fore
262 -12 m 1
 262 690 l 1
 805 690 l 1
 804 600 l 1
 360 600 l 1
 360 405 l 1
 744 405 l 1
 744 315 l 1
 360 315 l 1
 360 78 l 1
 804 78 l 1
 804 -12 l 1
 262 -12 l 1
360 744 m 1
 360 862 l 1
 478 862 l 1
 478 744 l 1
 360 744 l 1
608 744 m 1
 608 862 l 1
 726 862 l 1
 726 744 l 1
 608 744 l 1
EndSplineSet
EndChar
StartChar: afii10017
Encoding: 1040 1040 65535
Width: 1024
VWidth: 1024
Flags: HW
Fore
838 -12 m 1
 734 -12 l 1
 653 210 l 1
 349 210 l 1
 268 -12 l 1
 164 -12 l 1
 443 750 l 5
 559 750 l 5
 838 -12 l 1
382 300 m 1
 620 300 l 1
 505 614 l 1
 497 614 l 1
 382 300 l 1
EndSplineSet
EndChar
StartChar: afii10018
Encoding: 1041 1041 65535
Width: 1024
VWidth: 1024
Flags: HW
Fore
782 751 m 25
 782 657 l 25
 362 657 l 1
 362 444 l 1
 476 444 l 1
 562.666 443.79 637 443 701 406 c 1
 775 362 816.333 293 817 223 c 2
 817 222 l 2
 817 155.333 793.333 94.6667 746 52 c 0
 698 9.33333 612 -12 488 -12 c 2
 264 -12 l 1
 264 750 l 1
 782 751 l 25
713 222 m 2
 713 265.333 695.333 303.333 660 324 c 0
 624 344 582 354 476 354 c 2
 362 354 l 1
 362 78 l 1
 488 78 l 2
 580.667 78 641.333 92 670 120 c 0
 698.667 147.333 713 185 713 221 c 2
 713 222 l 2
EndSplineSet
EndChar
StartChar: afii10019
Encoding: 1042 1042 65535
Width: 1024
VWidth: 1024
Flags: HW
Fore
264 -12 m 1
 264 750 l 1
 496 750 l 2
 597.333 750 672 732.667 720 698 c 0
 767.333 663.333 791 613 791 547 c 2
 791 546 l 2
 791 490 760.667 438.667 700 392 c 1
 777.333 345.333 816.333 287 817 217 c 2
 817 216 l 2
 817 149.333 793.333 94.6667 746 52 c 0
 698 9.33333 612 -12 488 -12 c 2
 264 -12 l 1
713 216 m 2
 713 259.333 695.333 291.333 660 312 c 0
 624 332 562.667 342 476 342 c 2
 362 342 l 1
 362 78 l 1
 488 78 l 2
 580.667 78 641.333 92 670 120 c 0
 698.667 147.333 713 179 713 215 c 2
 713 216 l 2
687 546 m 2
 687 582.667 674 610.667 648 630 c 0
 622 650 571.333 660 496 660 c 2
 362 660 l 1
 362 432 l 1
 476 432 l 2
 562.667 432 619.333 442 646 462 c 0
 673.333 481.333 687 509 687 545 c 2
 687 546 l 2
EndSplineSet
EndChar
StartChar: afii10020
Encoding: 1043 1043 65535
Width: 1024
VWidth: 1024
Flags: HW
Fore
832 751 m 1
 265 750 l 1
 265 -12 l 1
 365 -12 l 1
 365 660 l 1
 831 660 l 1
 832 751 l 1
EndSplineSet
EndChar
StartChar: afii10021
Encoding: 1044 1044 65535
Width: 1024
VWidth: 1024
Flags: HW
Fore
736 18 m 1
215 107 m 1
 256 107 l 1
 294 181 307 276 318 333 c 0
 336.801 430.962 336.019 581.9 336 739 c 1
 334.613 745.387 337.867 747.132 344 746 c 1
 796 746 l 1
 796 107 l 1
 832 107 l 1
 834 -27 l 1
 737 -27 l 1
 736 18 l 1
 290 18 l 1
 275 1 283 -15 271 -27 c 1
 170 -27 l 1
 194 17 201 52 207 100 c 1
 206.77 105.229 208.653 108.347 215 107 c 1
359 107 m 1
 698 107 l 1
 698 657 l 1
 434 657 l 1
 433 510 430 413 409 299 c 0
 399 239 385 174 359 107 c 1
EndSplineSet
EndChar
StartChar: afii10022
Encoding: 1045 1045 65535
Width: 1024
VWidth: 1024
Flags: HW
Fore
262 -12 m 1
 262 750 l 1
 804 750 l 1
 804 660 l 1
 360 660 l 1
 360 432 l 1
 744 432 l 1
 744 342 l 1
 360 342 l 1
 360 78 l 1
 804 78 l 1
 804 -12 l 1
 262 -12 l 1
EndSplineSet
EndChar
StartChar: afii10024
Encoding: 1046 1046 65535
Width: 1024
VWidth: 0
Flags: HW
Fore
856 675 m 0
 800 675 767 619 755 503 c 1
 739 336 643 345 552 345 c 1
 552 429 l 1
 641 410 683 535 685 562 c 0
 698 731 782 757 856 757 c 1
 933 757 l 17
 933 757 933 676 932 675 c 1
 932 675 888 675 856 675 c 0
552 413 m 1
 670 413 706 402 767 341 c 0
 793 315 817 267 853 201 c 8
 897.361 119.671 919 84 991 15 c 1
 988 15 879 15 879 15 c 1
 838 56 807.652 101.762 768 165 c 24
 733.688 219.723 734 249 693 308 c 0
 663 352 664 359 552 359 c 1
 552 413 l 1
168 675 m 0
 136 675 92 675 92 675 c 1
 92 676 91 757 91 757 c 9
 168 757 l 1
 242 757 326 731 339 562 c 0
 341 535 383 410 472 429 c 1
 472 345 l 1
 381 345 285 336 269 503 c 1
 257 619 224 675 168 675 c 0
472 413 m 1
 472 359 l 1
 360 359 361 352 331 308 c 0
 290 249 290.312 219.723 256 165 c 24
 216.348 101.762 186 56 145 15 c 1
 145 15 36 15 33 15 c 1
 105 84 126.639 119.671 171 201 c 16
 207 267 231 315 257 341 c 0
 318 402 354 413 472 413 c 1
463 -13 m 1
 463 770 l 1
 561 770 l 1
 561 -13 l 1
 463 -13 l 1
EndSplineSet
EndChar
StartChar: afii10025
Encoding: 1047 1047 65535
Width: 1024
VWidth: 1024
Flags: HW
Fore
224.465 175 m 1
 329.333 175.017 l 1
 339.712 150.369 362.946 124.363 385.515 113 c 0
 421.265 95 447 83 499.23 83 c 0
 558 83 600.061 89.833 642.96 111.5 c 0
 685.86 133.167 717.311 165.667 717.311 209 c 0
 717.311 263.667 677.663 306.833 622.37 332.5 c 0
 587.902 348.5 535.622 363.016 507 366.407 c 1
 507 437.605 l 1
 534.618 441.24 578.784 448.416 606.925 465.5 c 0
 650.302 491.833 679.99 527.667 679.99 561 c 0
 679.99 593.667 660.446 623.833 621.36 645.5 c 0
 582.273 667.167 544.896 675 497.23 675 c 0
 448.61 675 417.379 658.333 383.535 639 c 0
 362.816 627.164 339.564 589.831 330.076 567 c 1
 220.684 566.975 l 1
 230.918 612.208 260.023 663.217 300 690 c 0
 353.733 726 415.2 756 498.4 756 c 0
 589.4 756 650.283 739 707.05 697 c 0
 763.816 655 792.2 606.667 792.2 560 c 0
 792.2 526 778.983 493.167 752.55 461.5 c 128
 726.117 429.833 713 417 658.12 402 c 1
 707.694 395.333 731.316 375.5 768.15 342.5 c 0
 804.983 309.5 823.4 265.333 823.4 210 c 0
 823.4 158 793.283 104.667 733.05 60 c 0
 672.816 15.333 605.267 -2 500.4 -2 c 0
 406.8 -2 357.267 19.667 301.8 57 c 0
 261.06 84.4209 235.281 131.754 224.465 175 c 1
EndSplineSet
EndChar
StartChar: afii10026
Encoding: 1048 1048 65535
Width: 1024
VWidth: 1024
Flags: HW
Fore
702 -12 m 1
 702 600 l 1
 701 596 l 1
 307 -12 l 1
 184 -12 l 1
 184 750 l 1
 282 750 l 1
 282 140 l 1
 283 147 l 1
 677 750 l 1
 800 750 l 1
 800 -12 l 1
 702 -12 l 1
EndSplineSet
EndChar
StartChar: afii10027
Encoding: 1049 1049 65535
Width: 1024
VWidth: 1024
Flags: HW
Fore
269 799 m 5
 353 865 l 5
 375.869 827.36 411 797.346 486 797.346 c 4
 573 797.346 607.634 828.21 638 868 c 5
 719 798 l 5
 642 722 585 702.434 486 702.434 c 4
 391.605 702.434 342 716 269 799 c 5
702 -12 m 1
 702 588 l 1
 701 584 l 1
 307 -12 l 1
 184 -12 l 1
 184 738 l 1
 282 738 l 1
 282 140 l 1
 283 147 l 1
 683 738 l 1
 800 738 l 1
 800 -12 l 1
 702 -12 l 1
EndSplineSet
EndChar
StartChar: afii10028
Encoding: 1050 1050 65535
Width: 1024
VWidth: 1024
Flags: HW
Fore
564 478 m 0
 516 324 332 291 329 289 c 1
 329 382 l 1
 439 412 462 480 502 546 c 0
 577.565 670.683 662 733 711 757 c 1
 838 757 l 17
 838 750 l 1
 790 717 596 579 564 478 c 0
561 497 m 1
 880 -12 l 1
 754 -12 l 1
 489 423 l 1
 561 497 l 1
330 -12 m 1
 232 -12 l 1
 232 750 l 1
 330 750 l 1
 330 -12 l 1
EndSplineSet
EndChar
StartChar: afii10029
Encoding: 1051 1051 65535
Width: 1024
VWidth: 1024
Flags: HW
Fore
160 -45 m 1
 160 57 l 1
 227 84 270.385 162.609 295.82 246 c 0
 333.891 370.812 337 516 330 728 c 1
 808 728 l 1
 808 -34 l 1
 710 -34 l 1
 710 639 l 1
 429 639 l 1
 430 435 403.435 192.086 349.477 109 c 0
 267 -18 233.889 -6.60645 160 -45 c 1
EndSplineSet
EndChar
StartChar: afii10030
Encoding: 1052 1052 65535
Width: 1024
VWidth: 1024
Flags: HW
Fore
204 -12 m 1
 106 -12 l 1
 106 750 l 1
 229 750 l 1
 508 174 l 1
 518 174 l 1
 769 750 l 1
 892 750 l 1
 892 -12 l 1
 794 -12 l 1
 794 552 l 1
 788 552 l 1
 545 -9 l 1
 481 -9 l 1
 210 552 l 1
 204 552 l 1
 204 -12 l 1
EndSplineSet
EndChar
StartChar: afii10031
Encoding: 1053 1053 65535
Width: 1024
VWidth: 1024
Flags: HW
Fore
328 -12 m 1
 230 -12 l 1
 230 750 l 1
 328 750 l 1
 328 432 l 1
 716 432 l 1
 716 750 l 1
 814 750 l 1
 814 -12 l 1
 716 -12 l 1
 716 342 l 1
 328 342 l 1
 328 -12 l 1
EndSplineSet
EndChar
StartChar: afii10032
Encoding: 1054 1054 65535
Width: 1024
VWidth: 1024
Flags: HW
Fore
128 380 m 0
 128 478.667 165.167 566 239.5 642 c 128
 313.833 718 405.667 756 515 756 c 128
 624.333 756 713.667 718 783 642 c 128
 852.333 566 887 478.667 887 380 c 0
 887 272 852.333 180 783 104 c 128
 713.667 28 624.333 -10 515 -10 c 128
 405.667 -10 313.833 28 239.5 104 c 128
 165.167 180 128 272 128 380 c 0
232 380 m 0
 232 280 261 203.5 319 150.5 c 128
 377 97.5 442.333 71 515 71 c 128
 587.667 71 650.5 97.5 703.5 150.5 c 128
 756.5 203.5 783 280 783 380 c 0
 783 474 756.5 546.667 703.5 598 c 128
 650.5 649.333 587.667 675 515 675 c 128
 442.333 675 377 649.333 319 598 c 128
 261 546.667 232 474 232 380 c 0
EndSplineSet
EndChar
StartChar: afii10033
Encoding: 1055 1055 65535
Width: 1024
VWidth: 1024
Flags: HW
Fore
328 -12 m 1
 230 -12 l 1
 230 750 l 1
 814 750 l 1
 814 -12 l 1
 716 -12 l 1
 716 661 l 1
 328 661 l 1
 328 -12 l 1
EndSplineSet
EndChar
StartChar: afii10034
Encoding: 1056 1056 65535
Width: 1024
VWidth: 1024
Flags: HW
Fore
394 -12 m 1
 296 -12 l 1
 296 750 l 1
 560 750 l 2
 668 750 743.167 732 785.5 696 c 128
 827.833 660 849 610.333 849 547 c 0
 849 482.333 827.833 432 785.5 396 c 128
 743.167 360 668 342 560 342 c 2
 394 342 l 1
 394 -12 l 1
745 547 m 0
 745 585.667 733.333 614.167 710 632.5 c 128
 686.667 650.833 636.667 660 560 660 c 2
 394 660 l 1
 394 432 l 1
 560 432 l 2
 636.667 432 686.667 441.167 710 459.5 c 128
 733.333 477.833 745 507 745 547 c 0
EndSplineSet
EndChar
StartChar: afii10035
Encoding: 1057 1057 65535
Width: 1024
VWidth: 1024
Flags: HW
Fore
128 378 m 0
 128 478 164.167 567 238.5 643 c 128
 312.833 719 405 756 513 756 c 0
 606.333 756 683.333 731.667 744 683 c 128
 804.667 634.333 841.667 572 855 496 c 1
 747 496 l 1
 736.333 550 711.167 593.333 671.5 626 c 128
 631.833 658.667 579 675 513 675 c 0
 441.667 675 377 649.333 319 598 c 128
 261 546.667 232 473 232 377 c 0
 232 279 261 203.5 319 150.5 c 128
 377 97.5 441.667 71 513 71 c 0
 579 71 634.5 89.1667 679.5 125.5 c 0
 724.5 161.833 752.333 211 763 273 c 1
 871 273 l 1
 860.333 197.667 826.667 131.667 770 75 c 0
 713.333 18.3333 627.667 -10 513 -10 c 0
 405 -10 312.833 27 238.5 103 c 128
 164.167 179 128 271.333 128 378 c 0
EndSplineSet
EndChar
StartChar: afii10036
Encoding: 1058 1058 65535
Width: 1024
VWidth: 1024
Flags: HW
Fore
554 -12 m 1
 456 -12 l 1
 456 660 l 1
 150 660 l 1
 150 750 l 1
 862 750 l 1
 862 660 l 1
 554 660 l 1
 554 -12 l 1
EndSplineSet
EndChar
StartChar: afii10037
Encoding: 1059 1059 65535
Width: 1024
VWidth: 1024
Flags: HW
Fore
395 -13 m 1
 449 88 l 1
 162 750 l 1
 279 750 l 1
 511 218 l 1
 766 751 l 1
 888 751 l 1
 498 -36 l 1
 458.667 -116 381.333 -144 266 -120 c 1
 266 -25 l 1
 332 -46.333 375 -43.667 395 -13 c 1
EndSplineSet
EndChar
StartChar: afii10038
Encoding: 1060 1060 65535
Width: 1024
VWidth: 1024
Flags: HW
Fore
348 219 m 2
 392 189 428 171.667 456 167 c 1
 456 570 l 1
 426 564.667 390 548 348 520 c 0
 300.667 490 275 444.667 271 384 c 2
 270 368 l 1
 270 306 295 257 345 221 c 2
 348 219 l 2
745 184 m 0
 697.667 148 651.667 125.333 607 116 c 1
 552 109 l 1
 552 -14 l 1
 455 -14 l 1
 455 111 l 1
 399.667 115.667 346.667 135 296 169 c 0
 229.333 213.667 189.667 267.667 177 331 c 0
 174.333 343 173 355.333 173 368 c 2
 173 369 l 2
 173 439 207.333 500.667 276 554 c 0
 332 596.667 392 621.333 456 628 c 1
 456 756 l 1
 554 756 l 1
 554 628 l 1
 632 620 696.333 595.333 747 554 c 0
 813 500 845 438.333 843 369 c 0
 841.667 313.667 818 260.667 772 210 c 0
 762.667 199.333 753.667 190.667 745 184 c 0
679 518 m 0
 640.333 546 598.667 563.333 554 570 c 1
 554 166 l 1
 590 171.333 626.333 186.667 663 212 c 0
 710.333 244 737.333 288.667 744 346 c 1
 745 369 l 1
 745 435.667 723 485.333 679 518 c 0
EndSplineSet
EndChar
StartChar: afii10039
Encoding: 1061 1061 65535
Width: 1024
VWidth: 1024
Flags: HW
Fore
892 -12 m 1
 770 -12 l 1
 514 324 l 1
 280 -12 l 1
 158 -12 l 1
 451 407 l 1
 190 749 l 1
 312 750 l 1
 536 456 l 1
 744 750 l 1
 866 750 l 1
 599 372 l 1
 892 -12 l 1
EndSplineSet
EndChar
StartChar: afii10040
Encoding: 1062 1062 65535
Width: 1024
VWidth: 1024
Flags: HW
Fore
719.467 20 m 1
 249 20 l 1
 249 750 l 1
 347 750 l 1
 347 109 l 1
 684 109 l 1
 684 750 l 1
 782 750 l 1
 783 113 l 1
 822 113 l 1
 830 -36 l 1
 728 -36 l 1
 719.467 20 l 1
EndSplineSet
EndChar
StartChar: afii10041
Encoding: 1063 1063 65535
Width: 1024
VWidth: 1024
Flags: HW
Fore
642.8 770 m 1
 748 770 l 1
 748 -13 l 1
 642.8 -13 l 1
 642.8 267 l 1
 584.4 211.667 520.4 194 462.8 194 c 0
 419.6 194 363 206 317 232 c 128
 271 258 246 322.333 246 399 c 2
 246 770 l 1
 353 770 l 1
 353.2 399 l 2
 353.2 354.333 367.2 324.5 387.2 309.5 c 128
 407.2 294.5 443.6 288 484.4 288 c 0
 517.2 288 551.4 296.5 583 323.5 c 128
 614.6 350.5 628 353 642.8 419 c 1
 642.8 770 l 1
EndSplineSet
EndChar
StartChar: afii10042
Encoding: 1064 1064 65535
Width: 1024
VWidth: 1024
Flags: HW
Fore
878.5 22 m 1
 878.5 750 l 1
 780.5 750 l 1
 780.5 109 l 1
 560.5 109 l 1
 560.5 750 l 1
 462.5 750 l 1
 462.5 109 l 1
 243.5 109 l 1
 243.5 750 l 1
 145.5 750 l 1
 145.5 20 l 1
 878.5 22 l 1
EndSplineSet
EndChar
StartChar: afii10043
Encoding: 1065 1065 65535
Width: 1024
VWidth: 1024
Flags: HW
Fore
556 109 m 1
 776 109 l 1
 776 750 l 1
 874 750 l 1
 874 112 l 1
 875 113 l 1
 914 113 l 1
 922 -36 l 1
 820 -36 l 1
 811 20 l 1
 141 20 l 1
 141 750 l 1
 239 750 l 1
 239 109 l 1
 458 109 l 1
 458 750 l 1
 556 750 l 1
 556 109 l 1
EndSplineSet
EndChar
StartChar: afii10044
Encoding: 1066 1066 65535
Width: 1024
VWidth: 1024
Flags: HW
Fore
816 231 m 2
 816 274.333 798.333 321.333 763 342 c 0
 727 362 720 372 614 372 c 2
 520 372 l 1
 520 78 l 1
 626 78 l 2
 718.667 78 744.333 92 773 120 c 0
 801.667 147.333 816 194 816 230 c 2
 816 231 l 2
422 659 m 1
 150 659 l 1
 150 750 l 1
 520 751 l 1
 520 462 l 1
 614 462 l 1
 700.666 461.79 740 461 804 424 c 1
 878 380 917.333 302 918 232 c 2
 918 231 l 2
 918 164.333 896.333 94.667 849 52 c 0
 801 9.33301 750 -12 626 -12 c 2
 422 -12 l 1
 422 659 l 1
EndSplineSet
EndChar
StartChar: afii10045
Encoding: 1067 1067 65535
Width: 1024
VWidth: 1024
Flags: HW
Fore
842 770 m 1
 842 -12 l 1
 742 -12 l 1
 742 770 l 1
 842 770 l 1
271 770 m 17
 271 462 l 1
 368 462 l 1
 454.666 461.79 502 461 566 424 c 1
 640 380 679.333 302 680 232 c 2
 680 231 l 2
 680 164.333 658.333 94.667 611 52 c 0
 563 9.33301 504 -12 380 -12 c 2
 173 -12 l 1
 173 770 l 1
 271 770 l 17
578 231 m 2
 578 274.333 560.333 321.333 525 342 c 0
 489 362 474 372 368 372 c 2
 271 372 l 1
 271 78 l 1
 380 78 l 2
 472.667 78 506.333 92 535 120 c 0
 563.667 147.333 578 194 578 230 c 2
 578 231 l 2
EndSplineSet
EndChar
StartChar: afii10046
Encoding: 1068 1068 65535
Width: 1024
VWidth: 1024
Flags: HW
Fore
362 770 m 17
 362 462 l 1
 476 462 l 1
 562.666 461.79 637 461 701 424 c 1
 775 380 816.333 302 817 232 c 2
 817 231 l 2
 817 164.333 793.333 94.6667 746 52 c 0
 698 9.33333 612 -12 488 -12 c 2
 264 -12 l 1
 264 770 l 1
 362 770 l 17
713 231 m 2
 713 274.333 695.333 321.333 660 342 c 0
 624 362 582 372 476 372 c 2
 362 372 l 1
 362 78 l 1
 488 78 l 2
 580.667 78 641.333 92 670 120 c 0
 698.667 147.333 713 194 713 230 c 2
 713 231 l 2
EndSplineSet
EndChar
StartChar: afii10047
Encoding: 1069 1069 65535
Width: 1024
VWidth: 1024
Flags: HW
Fore
765 336 m 1
 335 336 l 1
 335 423 l 1
 765 423 l 1
 757 497 728 555 680 598 c 0
 622 649 557 675 486 675 c 0
 420 675 367 659 328 626 c 0
 300 604 280 576 266 544 c 1
 156 544 l 1
 175 599 208 645 255 683 c 0
 316 732 393 756 486 756 c 0
 594 756 688 722 762 646 c 0
 837 570 871 478 871 378 c 0
 871 271 837 180 762 104 c 0
 688 28 594 -10 486 -10 c 0
 371 -10 286 18 229 75 c 0
 187 117 158 164 141 216 c 1
 252 216 l 1
 267 180 289 150 320 126 c 0
 364 89 420 71 486 71 c 0
 557 71 622 98 680 150 c 0
 730 196 758 258 765 336 c 1
EndSplineSet
EndChar
StartChar: afii10048
Encoding: 1070 1070 65535
Width: 1024
VWidth: 1024
Flags: HW
Fore
391 380 m 0
 391 280 417 202 468 150 c 0
 519 96 571 71 635 71 c 128
 699 71 749 96 796 150 c 0
 843 202 866 280 866 380 c 0
 866 474 842 547 795 598 c 128
 748 649 699 675 635 675 c 128
 571 675 519 650 468 599 c 128
 417 548 391 474 391 380 c 0
293 345 m 1
 189 345 l 1
 189 -12 l 1
 91 -12 l 1
 91 768 l 1
 189 768 l 17
 189 440 l 1
 295 440 l 1
 304 530 334 586 388 645 c 8
 461.132 724.903 537 755 635 756 c 1
 734 756 812 720 874 644 c 0
 937 568 965 479 965 380 c 0
 965 272 936 179 873 103 c 0
 811 27 734 -10 635 -10 c 0
 537 -10 457 27 390 103 c 0
 331 171 299 252 293 345 c 1
EndSplineSet
EndChar
StartChar: afii10049
Encoding: 1071 1071 65535
Width: 1024
VWidth: 1024
Flags: HW
Fore
695 -13 m 1
 793 -13 l 1
 793 750 l 1
 537 750 l 2
 408 750 346 735 304 699 c 0
 261 663 240 610 240 546 c 128
 240 482 258 434 294 404 c 0
 329 373 377 354 437 346 c 1
 207 -13 l 1
 339 -13 l 1
 538 341 l 1
 695 341 l 1
 695 -13 l 1
344 546 m 0
 344 580 356 610 379 632 c 0
 402 652 450 660 537 660 c 2
 695 660 l 1
 695 431 l 1
 529 431 l 2
 452 431 402 442 379 462 c 0
 356 484 344 512 344 546 c 0
EndSplineSet
EndChar
StartChar: afii10065
Encoding: 1072 1072 65535
Width: 1024
VWidth: 1024
Flags: HW
Fore
492 532 m 4
 550.667 532 598.833 516.5 636.5 485.5 c 132
 674.167 454.5 693 409.333 693 350 c 6
 693 104 l 6
 693 62.6667 700.667 24.6667 716 -10 c 5
 608 -10 l 5
 604 10.6667 600.667 30 598 48 c 5
 581.333 30.6667 559.5 16.8333 532.5 6.5 c 4
 505.5 -3.83333 478.667 -9.33333 452 -10 c 4
 390.667 -10 342.833 2 308.5 26 c 132
 274.167 50 257 86.3333 257 135 c 4
 257 167.667 268.833 199 292.5 229 c 132
 316.167 259 351 284.667 397 306 c 132
 443 327.333 509 346.667 595 364 c 5
 595 378 l 6
 595 403.333 586.833 425.167 570.5 443.5 c 132
 554.167 461.833 528 471 492 471 c 4
 458 471 432.833 463.5 416.5 448.5 c 132
 400.167 433.5 389.333 412.333 384 385 c 5
 284 385 l 5
 289.333 429.667 312.667 465.333 354 492 c 132
 395.333 518.667 441.333 532 492 532 c 4
361 136 m 4
 361 106 370.5 86 389.5 76 c 132
 408.5 66 429.667 61 453 61 c 4
 476.333 61.6667 500.5 67.3333 525.5 78 c 132
 550.5 88.6667 573.667 113.667 595 153 c 5
 595 294 l 5
 534.333 280.667 488.167 267.5 456.5 254.5 c 132
 424.833 241.5 401 225.333 385 206 c 132
 369 186.667 361 163.333 361 136 c 4
EndSplineSet
EndChar
StartChar: afii10066
Encoding: 1073 1073 65535
Width: 1024
VWidth: 1024
Flags: HW
Fore
532 478 m 0
 582 478 628.833 457.333 672.5 416 c 128
 716.167 374.667 738 316 738 240 c 0
 738 176 718.167 118.667 674.5 70 c 128
 630.833 21.333 574.667 -2 510 -2 c 0
 448.667 -2 391 22 347 70 c 128
 303 118 286 189 286 345 c 0
 286 466.333 273.898 551.312 327 612 c 0
 369 660 420.841 673.639 492 681 c 16
 579 690 609 693 714.431 734.089 c 1
 714.431 638.09 l 1
 630 612 594 612 540 609 c 0
 485.16 605.953 423 597 397 565 c 0
 365.515 526.249 366 473 373 413 c 1
 414 471 483 478 532 478 c 0
510 79 m 0
 550 79 579.667 92.5 605 119.5 c 128
 630.333 146.5 643 186.667 643 240 c 0
 643 296 631 335.167 609 359.5 c 128
 587 383.833 561 397 529 397 c 0
 480.333 397 447.667 382.167 425 360.5 c 128
 402.333 338.833 387.667 311 381 277 c 1
 385.667 193.667 399.833 143.167 423.5 117.5 c 128
 447.167 91.833 476 79 510 79 c 0
EndSplineSet
EndChar
StartChar: afii10067
Encoding: 1074 1074 65535
Width: 1024
VWidth: 1024
Flags: HW
Fore
290 -12 m 1
 290 522 l 1
 483 522 l 2
 564 522 624 509 663 485 c 0
 700 461 719 426 719 380 c 2
 719 379 l 2
 719 340 695 304 647 271 c 1
 708 238 740 198 740 148 c 2
 740 148 l 2
 740 101 721 63 683 33 c 128
 645 3 576 -12 477 -12 c 2
 290 -12 l 1
654 148 m 2
 654 176 640 197 612 211 c 0
 583 224 571 230 501 230 c 2
 377 230 l 1
 377 58 l 1
 474 58 l 2
 548 58 597 67 620 86 c 0
 643 103 654 124 654 147 c 2
 654 148 l 2
633 380 m 2
 633 404 623 422 602 435 c 128
 581 448 541 454 480 454 c 2
 377 454 l 1
 377 304 l 1
 501 304 l 2
 571 304 579 311 600 324 c 0
 622 336 633 356 633 380 c 2
 633 380 l 2
EndSplineSet
EndChar
StartChar: afii10068
Encoding: 1075 1075 65535
Width: 1024
VWidth: 1024
Flags: HW
Fore
298.5 513 m 5
 725.5 513 l 5
 725.5 420 l 5
 393.5 420 l 5
 393.5 -12 l 1
 298.5 -12 l 1
 298.5 513 l 5
EndSplineSet
EndChar
StartChar: afii10069
Encoding: 1076 1076 65535
Width: 1024
VWidth: 1024
Flags: HW
Fore
687.5 10 m 1
271.5 94 m 1
 303.5 94 l 1
 329.5 147 345.5 228 350.5 268 c 0
 357.5 321 361.5 424 361.5 537 c 1
 360.5 542 365.5 547 370.5 546 c 1
 740.5 546 l 1
 740.5 94 l 1
 771.5 94 l 1
 781.5 -26 l 1
 692.5 -26 l 1
 687.5 10 l 1
 332.5 10 l 1
 326.5 -4 321.5 -10 316.5 -21 c 1
 236.5 -21 l 1
 255.5 10 259.5 54 264.5 89 c 1
 264.5 93 266.5 95 271.5 94 c 1
393.5 94 m 1
 652.5 94 l 1
 652.5 464 l 1
 440.5 464 l 1
 438.5 358 433.5 307 424.5 234 c 0
 419.5 195 410.5 139 393.5 94 c 1
EndSplineSet
EndChar
StartChar: afii10070
Encoding: 1077 1077 65535
Width: 1024
VWidth: 1024
Flags: HW
Fore
233 260 m 0
 233 332 258.167 395.333 308.5 450 c 128
 358.833 504.667 424 532 504 532 c 0
 585.333 532 651 509.333 701 464 c 128
 751 418.667 776 352.667 776 266 c 1
 668 266 l 1
 337 266 l 1
 337 259 l 2
 337 197 354.333 150.167 389 118.5 c 0
 423.667 86.8333 463.333 71 508 71 c 0
 551.333 71 586.833 77.8333 614.5 91.5 c 0
 642.167 105.167 662.667 132 676 172 c 1
 784 172 l 1
 774.667 117.333 746.333 73.3333 699 40 c 0
 651.667 6.66667 588 -10 508 -10 c 0
 426.667 -10 360.5 17.3333 309.5 72 c 0
 258.5 126.667 233 189.333 233 260 c 0
504 451 m 0
 459.333 451 424.167 439.333 398.5 416 c 128
 372.833 392.667 355.667 367.333 347 340 c 1
 661 340 l 1
 653 374 636 401 610 421 c 128
 584 441 548.667 451 504 451 c 0
EndSplineSet
EndChar
StartChar: afii10072
Encoding: 1078 1078 65535
Width: 1024
VWidth: 0
Flags: HW
Fore
770 449 m 0
 793 449 825 449 825 449 c 1
 825 450 825 521 825 521 c 9
 770 521 l 1
 717 521 652 515 643 400 c 0
 642 382 617 297 553 310 c 1
 553 246 l 1
 618 246 692 235 703 348 c 1
 712 427 730 449 770 449 c 0
553 287 m 1
 553 243 l 1
 633 243 632 238 654 209 c 0
 683 168 685.077 153.166 709 118 c 24
 738.699 74.3428 760 41 789 13 c 1
 789 13 876 13 878 13 c 1
 827 60 811.699 86.4053 779 143 c 16
 753 188 736 222 718 240 c 0
 674 281 637 287 553 287 c 1
256 449 m 0
 234 449 201 449 201 449 c 1
 201 450 201 521 201 521 c 9
 256 521 l 1
 309 521 374 515 383 400 c 0
 385 382 410 297 473 310 c 1
 473 246 l 1
 408 246 335 235 323 348 c 1
 315 427 296 449 256 449 c 0
473 287 m 1
 473 243 l 1
 393 243 394 238 373 209 c 0
 343 168 340.886 153.442 317 118 c 24
 287.58 74.3457 268 40 239 12 c 1
 239 12 152 12 150 12 c 1
 201 59 216.22 85.7949 248 143 c 16
 273 188 290 222 309 240 c 0
 352 281 389 287 473 287 c 1
467 -3 m 1
 467 530 l 1
 559 530 l 1
 559 -3 l 1
 467 -3 l 1
EndSplineSet
EndChar
StartChar: afii10073
Encoding: 1079 1079 65535
Width: 1024
VWidth: 1024
Flags: HW
Fore
357 129 m 1
 366 113 382 97 400 89 c 0
 429 78 449 69 491 69 c 0
 538 69 572 72 606 85 c 0
 640 99 666 123 666 150 c 0
 666 184 634 210 590 226 c 0
 562 236 520 242 497 244 c 1
 497 296 l 1
 519 298 555 303 577 314 c 0
 612 330 636 351 636 372 c 0
 636 392 620 415 589 429 c 128
 558 443 528 446 490 446 c 0
 456 446 431.098 440.866 399 421 c 24
 377.081 407.435 356 373 356 373 c 1
 262 373 l 1
 270 412 289.186 445.378 328 475 c 0
 366 504 424 522 493 522 c 0
 568 522 619 510 666 480 c 0
 713 451 737 417 737 384 c 0
 737 361 726 338 704 315 c 0
 682 293 678 289 632 272 c 1
 673 267 686 255 717 232 c 0
 747 209 762 178 762 139 c 0
 762 103 737 66 687 34 c 0
 638 3 581 -9 494 -9 c 0
 417 -9 374.578 1.63184 330 30 c 0
 297 51 267 88 264 130 c 1
 357 129 l 1
EndSplineSet
EndChar
StartChar: afii10074
Encoding: 1080 1080 65535
Width: 1024
VWidth: 0
Flags: HW
Fore
649 -13 m 1
 649 391 l 1
 643 381 l 1
 388 -12 l 1
 278 -12 l 1
 278 515 l 1
 375 515 l 1
 375 112 l 1
 381 125 l 1
 636 513 l 1
 746 513 l 1
 746 -13 l 5
 649 -13 l 1
EndSplineSet
EndChar
StartChar: afii10075
Encoding: 1081 1081 65535
Width: 1024
VWidth: 0
Flags: HW
Fore
331 626 m 1
 393 681 l 1
 411 655 453 634 500 634 c 0
 558 634 597 655 621 683 c 1
 681 625 l 1
 619 572 579 558 500 558 c 0
 424 558 389 568 331 626 c 1
649 -13 m 1
 649 391 l 1
 643 381 l 1
 388 -12 l 1
 278 -12 l 1
 278 515 l 1
 375 515 l 1
 375 112 l 1
 381 125 l 1
 636 513 l 1
 746 513 l 1
 746 -13 l 1
 649 -13 l 1
EndSplineSet
EndChar
StartChar: afii10076
Encoding: 1082 1082 65535
Width: 1024
VWidth: 1024
Flags: HW
Fore
538 303 m 0
 504 180 375 153 373 152 c 1
 373 236 l 1
 450 260 462 312 490 365 c 0
 543 465 598 507 632 526 c 1
 730 526 l 17
 730 520 l 1
 696 494 560 384 538 303 c 0
537 320 m 1
 763 -9 l 1
 664 -9 l 1
 478 259 l 1
 537 320 l 1
374 -9 m 1
 281 -9 l 1
 281 520 l 1
 374 520 l 1
 374 -9 l 1
EndSplineSet
EndChar
StartChar: afii10077
Encoding: 1083 1083 65535
Width: 1024
VWidth: 1024
Flags: HW
Fore
228.095 -17.8057 m 1
 228.095 73.1826 l 1
 290 99 311.531 134.227 336.5 208 c 1
 359.051 272.999 362 309.5 359.743 511.806 c 1
 769.905 511.806 l 1
 769.905 -9.28711 l 1
 669.015 -9.28711 l 1
 669.015 420.884 l 1
 454.407 420.884 l 1
 451 238.5 425.5 160.5 383 87 c 8
 345.551 22.2357 290 0 228.095 -17.8057 c 1
EndSplineSet
EndChar
StartChar: afii10078
Encoding: 1084 1084 65535
Width: 1024
VWidth: 1024
Flags: HW
Fore
302.101 -12 m 1
 206.74 -12 l 1
 206.74 519.4 l 1
 326.601 519.4 l 1
 519.38 131.2 l 1
 527.58 131.2 l 1
 697.4 519.4 l 1
 817.26 519.4 l 1
 817.26 -12 l 1
 721.9 -12 l 1
 721.9 385.8 l 1
 716.98 385.8 l 1
 549.72 -9.90039 l 1
 497.24 -9.90039 l 1
 307.021 385.8 l 1
 302.101 385.8 l 1
 302.101 -12 l 1
EndSplineSet
EndChar
StartChar: afii10079
Encoding: 1085 1085 65535
Width: 1024
VWidth: 1024
Flags: HW
Fore
640.5 224 m 1
 383.5 224 l 1
 383.5 -12 l 1
 285.5 -12 l 1
 285.5 521 l 1
 383.5 521 l 1
 383.5 317 l 1
 640.5 317 l 1
 640.5 521 l 1
 738.5 521 l 1
 738.5 -12 l 1
 640.5 -12 l 1
 640.5 224 l 1
EndSplineSet
EndChar
StartChar: afii10080
Encoding: 1086 1086 65535
Width: 1024
VWidth: 1024
Flags: HW
Fore
228 266 m 0
 228 339.333 253.167 402 303.5 454 c 128
 353.833 506 420.333 532 503 532 c 128
 585.667 532 652.333 506 703 454 c 128
 753.667 402 779 339 779 265 c 0
 779 185.667 753.667 120 703 68 c 128
 652.333 16 585.667 -10 503 -10 c 128
 420.333 -10 353.833 16 303.5 68 c 128
 253.167 120 228 186 228 266 c 0
332 265 m 0
 332 201.667 349 153.5 383 120.5 c 128
 417 87.5 457 71 503 71 c 128
 549 71 589.167 87.5 623.5 120.5 c 128
 657.833 153.5 675 202 675 266 c 0
 675 326.667 657.833 372.667 623.5 404 c 128
 589.167 435.333 549 451 503 451 c 128
 457 451 417 435.333 383 404 c 128
 349 372.667 332 326.333 332 265 c 0
EndSplineSet
EndChar
StartChar: afii10081
Encoding: 1087 1087 65535
Width: 1024
VWidth: 1024
Flags: HW
Fore
639 420 m 1
 382 420 l 1
 382 -12 l 1
 284 -12 l 1
 284 513 l 1
 737 513 l 1
 737 -12 l 1
 639 -12 l 1
 639 420 l 1
EndSplineSet
EndChar
StartChar: afii10082
Encoding: 1088 1088 65535
Width: 1024
VWidth: 1024
Flags: HW
Fore
330 -116 m 1
 330 534 l 1
 428 534 l 1
 428 469 l 1
 472.667 511 520.333 532 571 532 c 0
 634.333 532 687.5 509.333 730.5 464 c 128
 773.5 418.667 795 359.333 795 286 c 0
 795 214 772.5 156.667 727.5 114 c 0
 682.5 71.3333 629.667 48.6667 569 46 c 1
 518.333 46 471.333 58.6667 428 84 c 1
 428 -116 l 1
 330 -116 l 1
569 127 m 1
 606.333 129.667 636 143.833 658 169.5 c 128
 680 195.167 691 234 691 286 c 0
 691 336.667 679.667 376.833 657 406.5 c 128
 634.333 436.167 605 451 569 451 c 0
 525.667 451 492.5 437.333 469.5 410 c 128
 446.5 382.667 432.667 360 428 342 c 1
 428 196 l 1
 438 170 455.833 152 481.5 142 c 128
 507.167 132 536.333 127 569 127 c 1
EndSplineSet
EndChar
StartChar: afii10083
Encoding: 1089 1089 65535
Width: 1024
VWidth: 1024
Flags: HW
Fore
233 260 m 0
 233 332 258.167 395.333 308.5 450 c 128
 358.833 504.667 424 532 504 532 c 0
 589.333 532 654.333 513 699 475 c 128
 743.667 437 768.667 390.667 774 336 c 1
 670 336 l 1
 662 378 645.167 407.667 619.5 425 c 128
 593.833 442.333 555.333 451 504 451 c 0
 459.333 451 420.333 436 387 406 c 128
 353.667 376 337 327 337 259 c 0
 337 197 354.333 150.167 389 118.5 c 0
 423.667 86.8333 463.333 71 508 71 c 0
 551.333 71 586.833 77.8333 614.5 91.5 c 0
 642.167 105.167 662.667 132 676 172 c 1
 784 172 l 1
 774.667 117.333 746.333 73.3333 699 40 c 0
 651.667 6.66667 588 -10 508 -10 c 0
 426.667 -10 360.5 17.3333 309.5 72 c 0
 258.5 126.667 233 189.333 233 260 c 0
EndSplineSet
EndChar
StartChar: afii10084
Encoding: 1090 1090 65535
Width: 1024
VWidth: 1024
Flags: HW
Fore
554 -12 m 5
 456 -12 l 5
 456 413 l 1
 221 413 l 1
 221 503 l 1
 791 503 l 1
 791 413 l 1
 554 413 l 1
 554 -12 l 5
EndSplineSet
EndChar
StartChar: afii10085
Encoding: 1091 1091 65535
Width: 1024
VWidth: 1024
Flags: HW
Fore
421 -20 m 1
 464 66 l 1
 266 534 l 1
 371 534 l 1
 521 180 l 1
 698 534 l 1
 810 534 l 1
 524 -36 l 1
 484.667 -116 407.333 -144 292 -120 c 1
 292 -34 l 1
 358 -55.3333 401 -50.6667 421 -20 c 1
EndSplineSet
EndChar
StartChar: afii10086
Encoding: 1092 1092 65535
Width: 1024
VWidth: 1024
Flags: HW
Fore
678 127 m 1
 707 130 732 143 752 168 c 0
 772 192 782 231 782 286 c 0
 782 339 771 380 750 408 c 0
 730 437 706 451 678 451 c 0
 640 451 610 437 590 409 c 128
 570 381 558 358 554 340 c 1
 554 193 l 1
 562 168 578 151 602 142 c 0
 625 132 650 127 678 127 c 1
464 72.6562 m 1
 436.07 55.1055 402.07 46 362 46 c 1
 300 49 249 71 209 113 c 128
 169 155 149 213 149 286 c 0
 149 347 166 404 200 455 c 128
 234 506 281 532 340 532 c 0
 384.469 532 425.2 513.309 464 477.733 c 1
 464 770 l 1
 554 770 l 1
 554 468 l 1
 592 511 634 532 680 532 c 0
 732 532 779 509 817 464 c 128
 855 419 875 359 875 286 c 0
 875 215 856 158 818 115 c 128
 780 72 733 49 678 46 c 1
 632 46 591 58 554 82 c 1
 554 -116 l 1
 464 -116 l 1
 464 72.6562 l 1
464 176.803 m 1
 464 344.583 l 1
 458.02 364.938 448.687 384.027 436 402 c 0
 412 434 380 451 342 451 c 0
 314 451 291 434 272 398 c 0
 252 364 242 326 242 286 c 0
 242 229 254 188 276 166 c 0
 298 142 326 130 362 127 c 1
 390 127 414 132 434 143 c 0
 446.765 150.021 456.678 161.115 464 176.803 c 1
EndSplineSet
EndChar
StartChar: afii10087
Encoding: 1093 1093 65535
Width: 1024
VWidth: 1024
Flags: HW
Fore
834 -12 m 1
 702 -12 l 1
 508 211 l 1
 332 -12 l 1
 210 -12 l 1
 444 284 l 1
 226 534 l 1
 358 534 l 1
 534 333 l 1
 684 534 l 1
 806 534 l 1
 599 257 l 1
 834 -12 l 1
EndSplineSet
EndChar
StartChar: afii10088
Encoding: 1094 1094 65535
Width: 1024
VWidth: 1024
Flags: HW
Fore
680 8 m 1
 276 8 l 1
 276 516 l 1
 375 516 l 1
 375 94 l 1
 639 94 l 1
 639 514 l 1
 738 514 l 1
 738 94 l 1
 773 94 l 1
 780 -31 l 1
 688 -31 l 1
 680 8 l 1
EndSplineSet
EndChar
StartChar: afii10089
Encoding: 1095 1095 65535
Width: 1024
VWidth: 1024
Flags: HW
Fore
628 518 m 1
 723 518 l 1
 723 2 l 1
 628 2 l 1
 628 206 l 1
 588 163 533 146 488 146 c 0
 454 146 410 155 374 176 c 128
 338 197 319 248 319 310 c 2
 319 518 l 1
 413 518 l 1
 413 319 l 2
 413 283 424 259 438 247 c 0
 453 235 480 230 511 230 c 0
 535 230 560 237 584 258 c 0
 607 280 617 282 628 335 c 1
 628 518 l 1
EndSplineSet
EndChar
StartChar: afii10090
Encoding: 1096 1096 65535
Width: 1024
VWidth: 1024
Flags: HW
Fore
464 105 m 1
 464 520 l 1
 560 520 l 1
 560 105 l 1
 705 105 l 1
 705 521 l 1
 804 521 l 1
 804 12 l 1
 220 12 l 1
 220 521 l 1
 319 521 l 1
 319 105 l 1
 464 105 l 1
EndSplineSet
EndChar
StartChar: afii10091
Encoding: 1097 1097 65535
Width: 1024
VWidth: 1024
Flags: HW
Fore
736.091 12 m 1
 211 12 l 1
 211 521 l 1
 310 521 l 1
 310 105 l 1
 455 105 l 1
 455 520 l 1
 551 520 l 1
 551 105 l 1
 696 105 l 1
 696 521 l 1
 795 521 l 1
 795 105 l 1
 829 105 l 1
 836 -26 l 1
 743 -26 l 1
 736.091 12 l 1
EndSplineSet
EndChar
StartChar: afii10092
Encoding: 1098 1098 65535
Width: 1024
VWidth: 1024
Flags: HW
Fore
762 154 m 1
 762 183 748 211 724 224 c 0
 694 238 686 240 616 240 c 2
 508 240 l 1
 508 62 l 1
 590 62 l 2
 664 62 704 71 728 90 c 0
 750 107 762 131 762 154 c 1
508 522 m 1
 508 316 l 1
 616 316 l 2
 704 316 740 309 768 290 c 0
 792 272 848 225 848 153 c 1
 848 106 828 63 790 33 c 128
 752 3 692 -12 592 -12 c 2
 420 -12 l 1
 420 431 l 1
 176 431 l 1
 176 522 l 1
 176 522 176 521 508 522 c 1
EndSplineSet
EndChar
StartChar: afii10093
Encoding: 1099 1099 65535
Width: 1024
VWidth: 1024
Flags: HW
Fore
796.75 -12 m 1
 698.75 -12 l 1
 698.75 521 l 1
 796.75 521 l 1
 796.75 -12 l 1
558.25 154 m 1
 558.25 183 545.25 211 520.25 224 c 0
 491.25 238 485.25 240 415.25 240 c 2
 314.25 240 l 1
 314.25 62 l 1
 404.25 62 l 2
 478.25 62 501.25 71 524.25 90 c 0
 547.25 107 558.25 131 558.25 154 c 1
644.25 153 m 1
 644.25 106 625.25 63 587.25 33 c 128
 549.25 3 490.25 -12 391.25 -12 c 2
 227.25 -12 l 1
 227.25 522 l 1
 314.25 522 l 17
 314.25 316 l 1
 415.25 316 l 2
 503.25 316 536.25 309 564.25 290 c 0
 589.25 272 644.25 225 644.25 153 c 1
EndSplineSet
EndChar
StartChar: afii10094
Encoding: 1100 1100 65535
Width: 1024
VWidth: 1024
Flags: HW
Fore
647.5 154 m 1
 647.5 183 634.5 211 609.5 224 c 0
 580.5 238 566.5 240 496.5 240 c 2
 379.5 240 l 1
 379.5 62 l 1
 469.5 62 l 2
 543.5 62 590.5 71 613.5 90 c 0
 636.5 107 647.5 131 647.5 154 c 1
733.5 153 m 1
 733.5 106 714.5 63 676.5 33 c 128
 638.5 3 571.5 -12 472.5 -12 c 2
 292.5 -12 l 1
 292.5 522 l 1
 379.5 522 l 17
 379.5 316 l 1
 496.5 316 l 2
 584.5 316 625.5 309 653.5 290 c 0
 678.5 272 733.5 225 733.5 153 c 1
EndSplineSet
EndChar
StartChar: afii10095
Encoding: 1101 1101 65535
Width: 1024
VWidth: 1024
Flags: HW
Fore
678 224 m 1
 338 224 l 1
 338 252 340 279 338 307 c 1
 677 307 l 1
 670 351 655 384 630 406 c 0
 597 436 558 451 513 451 c 0
 462 451 423 442 398 425 c 0
 384 416 372 403 364 386 c 1
 254 386 l 1
 266 420 288 449 318 475 c 0
 363 513 428 532 513 532 c 0
 593 532 658 505 708 450 c 0
 759 395 784 332 784 260 c 0
 784 189 758 127 708 72 c 0
 656 17 590 -10 509 -10 c 0
 429 -10 365 7 318 40 c 0
 287 62 264 88 250 119 c 1
 369 119 l 1
 394.884 84.4876 448.126 71 509 71 c 0
 554 71 593 87 628 118 c 0
 656 144 672 179 678 224 c 1
EndSplineSet
EndChar
StartChar: afii10096
Encoding: 1102 1102 65535
Width: 1024
VWidth: 1024
Flags: HW
Fore
518 265 m 0
 518 202 529 154 552 120 c 0
 575 88 601 71 632 71 c 128
 663 71 690 88 713 120 c 0
 736 154 747 202 747 266 c 0
 747 327 736 373 713 404 c 128
 690 435 663 451 632 451 c 128
 601 451 575 435 552 404 c 128
 529 373 518 326 518 265 c 0
421 315 m 1
 428 368 444 414 476 454 c 0
 516 506 564 532 637 532 c 0
 705 532 753 506 794 454 c 0
 834 402 850 339 850 265 c 0
 850 186 834 120 794 68 c 0
 753 16 705 -10 637 -10 c 0
 570 -10 516 16 476 68 c 0
 442 111 425 164 420 227 c 1
 290 227 l 1
 290 -12 l 1
 192 -12 l 1
 192 521 l 1
 290 521 l 1
 290 315 l 1
 421 315 l 1
EndSplineSet
EndChar
StartChar: afii10097
Encoding: 1103 1103 65535
Width: 1024
VWidth: 1024
Flags: HW
Fore
653.5 -5 m 1
 737.5 -5 l 1
 737.5 519 l 1
 533.5 519 l 2
 429.5 519 382.5 505 348.5 481 c 0
 314.5 456 295.5 407 295.5 364 c 0
 295.5 320 311.5 273 340.5 252 c 0
 368.5 231 400.5 215 448.5 210 c 1
 268.5 -5 l 1
 373.5 -5 l 1
 533.5 208 l 1
 653.5 208 l 1
 653.5 -5 l 1
378.5 363 m 0
 378.5 386 394.5 411 412.5 426 c 0
 431.5 440 463.5 448 533.5 448 c 2
 653.5 448 l 1
 653.5 278 l 1
 526.5 278 l 2
 465.5 278 431.5 286 412.5 300 c 0
 394.5 315 378.5 340 378.5 363 c 0
EndSplineSet
EndChar
StartChar: afii10071
Encoding: 1105 1105 65535
Width: 1024
VWidth: 1024
Flags: HW
Fore
330 581 m 1
 330 699 l 1
 448 699 l 1
 448 581 l 1
 330 581 l 1
578 581 m 1
 578 699 l 1
 696 699 l 1
 696 581 l 1
 578 581 l 1
233 260 m 0
 233 332 258.167 395.333 308.5 450 c 128
 358.833 504.667 424 532 504 532 c 0
 585.333 532 651 509.333 701 464 c 128
 751 418.667 776 352.667 776 266 c 1
 668 266 l 1
 337 266 l 1
 337 259 l 2
 337 197 354.333 150.167 389 118.5 c 0
 423.667 86.8333 463.333 71 508 71 c 0
 551.333 71 586.833 77.8333 614.5 91.5 c 0
 642.167 105.167 662.667 132 676 172 c 1
 784 172 l 1
 774.667 117.333 746.333 73.3333 699 40 c 0
 651.667 6.66667 588 -10 508 -10 c 0
 426.667 -10 360.5 17.3333 309.5 72 c 0
 258.5 126.667 233 189.333 233 260 c 0
504 451 m 0
 459.333 451 424.167 439.333 398.5 416 c 128
 372.833 392.667 355.667 367.333 347 340 c 1
 661 340 l 1
 653 374 636 401 610 421 c 128
 584 441 548.667 451 504 451 c 0
EndSplineSet
EndChar
StartChar: uni74E2
Encoding: 29922 29922 0
Width: 1024
Flags: HW
Fore
153 87 m 0
 153 87 l 0
 245 49 238 30 200 25 c 1
 171 -29 125 -76 69 -117 c 1
 12 -76 l 1
 84 -27 129 28 153 87 c 0
103 257 m 1
 103 257 l 1
 103 324 l 1
 504 324 l 1
 504 257 l 1
 103 257 l 1
768 131 m 0
 768 131 l 1
 768 25 l 1
 799 43 l 1
 791 73 780 102 768 131 c 0
701 622 m 1
 800 609 801 583 768 570 c 1
 768 142 l 1
 823 169 l 1
 860 91 880 9 885 -76 c 1
 818 -92 l 1
 818 -70 816 -47 813 -26 c 1
 772 -49 731 -72 692 -90 c 1
 694 -126 670 -137 616 -51 c 1
 644 -39 673 -26 701 -10 c 0
 701 622 l 1
555 176 m 1
 579 352 583 488 589 659 c 1
 681 687 771 726 873 774 c 9
 945 738 l 25
 882 718 l 1
 897 717 l 1
 909 405 924 48 1009 -118 c 1
 951 -167 l 1
 885 -38 852 210 833 689 c 1
 777 663 714 645 645 620 c 1
 642 209 612 -50 539 -177 c 1
 475 -155 l 1
 485 -139 495 -119 504 -93 c 1
 471 -47 433 -8 387 25 c 1
 425 79 l 1
 463 52 497 22 525 -13 c 1
 534 23 541 63 547 110 c 1
 338 110 l 1
 338 -79 l 2
 338 -137 304 -166 238 -166 c 1
 226 -143 215 -122 205 -99 c 1
 240 -99 l 2
 260 -99 271 -92 271 -79 c 2
 271 110 l 1
 38 110 l 1
 38 176 l 1
 555 176 l 1
337 546 m 1
 337 546 l 1
 268 546 l 1
 268 450 l 1
 337 450 l 1
 337 546 l 1
202 546 m 1
 202 546 l 1
 138 546 l 1
 138 450 l 1
 202 450 l 1
 202 546 l 1
268 612 m 1
 268 612 l 1
 337 612 l 1
 337 677 l 1
 268 677 l 1
 268 612 l 1
403 612 m 1
 403 612 l 1
 538 612 l 1
 538 371 l 1
 471 371 l 1
 471 383 l 1
 138 383 l 1
 138 373 l 1
 72 373 l 1
 72 612 l 1
 202 612 l 1
 202 677 l 1
 38 677 l 1
 38 743 l 1
 570 743 l 1
 570 677 l 1
 403 677 l 1
 403 612 l 1
471 450 m 1
 471 546 l 1
 403 546 l 1
 403 450 l 1
 471 450 l 1
EndSplineSet
EndChar
StartChar: uni766E
Encoding: 30318 30318 1
Width: 1024
Flags: HW
Fore
372 540 m 10
 414 540 l 2
 458 540 486 505 477 462 c 1
 466 419 454 378 439 342 c 1
 429 324 434 296 449 282 c 1
 467 257 480 230 487 204 c 1
 490 206 494 207 497 207 c 2
 822 207 l 1
 822 213 l 2
 822 233 806 250 785 250 c 2
 565 251 l 2
 554 251 545 259 545 268 c 0
 545 281 553 291 563 291 c 2
 785 291 l 2
 828 291 863 256 863 213 c 2
 863 207 l 1
 946 207 l 2
 957 207 967 199 967 188 c 0
 967 176 958 166 948 166 c 2
 863 166 l 1
 863 157 l 2
 863 114 828 79 785 79 c 2
 736 79 l 1
 758 52 776 24 791 -7 c 0
 795 -17 791 -30 781 -33 c 0
 770 -38 758 -34 754 -25 c 0
 738 10 717 41 691 69 c 0
 688 72 686 75 685 79 c 1
 561 79 l 2
 550 79 541 87 541 97 c 0
 541 110 549 120 559 120 c 2
 785 120 l 2
 806 120 822 136 822 157 c 2
 822 166 l 1
 499 167 l 2
 498 167 496 167 495 167 c 1
 496 157 496 147 495 138 c 0
 489 81 472 46 439 40 c 1
 428 40 420 49 420 59 c 0
 421 72 429 81 439 80 c 1
 452 89 452 118 454 141 c 0
 457 170 452 209 429 244 c 1
 397 274 388 333 409 372 c 1
 419 398 427 430 435 462 c 0
 439 481 430.409 498 407 498 c 2
 372 498 l 2
 352 498 336 481 336 461 c 1
 335 -114 l 1
 335 -126 326 -135 317 -135 c 0
 304 -135 295 -127 295 -116 c 2
 295 461 l 2
 295 504 329 540 372 540 c 10
522 442 m 0
 522 442 l 0
 515 435 504 435 497 441 c 0
 488 450 486 463 494 470 c 1
 511 493 524 518 534 548 c 1
 624 555 735 569 867 590 c 0
 879 592 889 586 891 575 c 0
 892 568 890 560 886 556 c 1
 908 537 928 514 944 488 c 1
 949 478 946 467 938 462 c 0
 927 456 914 459 909 467 c 0
 895 489 879 508 859 525 c 0
 852 530 849 540 851 547 c 1
 806 540 764 534 723 527 c 1
 734 513 743 497 751 480 c 1
 754 469 749 458 739 455 c 0
 727 452 716 457 713 466 c 0
 707 479 700 492 692 502 c 0
 687 509 686 517 688 523 c 1
 643 517 601 513 563 509 c 1
 553 486 542 465 526 446 c 1
 529 449 534 451 537 451 c 2
 904 450 l 2
 915 450 925 441 925 432 c 0
 925 420 915 410 906 410 c 2
 743 410 l 1
 743 365 l 1
 946 365 l 2
 957 365 967 356 967 346 c 0
 967 334 958 324 948 324 c 2
 501 324 l 2
 489 324 480 332 480 342 c 0
 480 354 488 365 499 365 c 2
 702 365 l 1
 702 410 l 1
 539 410 l 2
 527 410 518 418 518 428 c 0
 518 433 520 438 522 442 c 0
622 38 m 1
 622 38 l 0
 622 49 630 58 640 58 c 0
 652 58 663 50 663 40 c 2
 663 -69 l 2
 663 -83 669 -89 683 -90 c 2
 791 -90 l 2
 808 -90 819 -82 824 -66 c 2
 840 -17 l 1
 843 -6 854 0 863 -3 c 0
 874 -7 882 -17 879 -28 c 2
 863 -78 l 2
 852 -114 827 -131 791 -131 c 2
 683 -131 l 2
 642 -130 622 -110 622 -69 c 2
 622 38 l 1
899 24 m 0
 899 24 l 0
 892 33 893 44 901 50 c 0
 911 58 924 57 930 49 c 0
 952 19 970 -12 981 -47 c 0
 984 -58 978 -70 969 -72 c 0
 956 -75 945 -70 942 -59 c 0
 932 -30 918 -2 899 24 c 0
522 37 m 0
 522 37 l 0
 526 47 538 52 547 49 c 0
 558 44 564 33 561 24 c 0
 548 -9 529 -38 507 -65 c 0
 500 -73 487 -74 480 -67 c 0
 471 -58 470 -45 477 -38 c 0
 496 -15 511 9 522 37 c 0
35 588 m 0
 35 588 l 0
 29 597 30 609 38 615 c 0
 48 622 61 621 67 612 c 0
 99 566 122 516 136 462 c 0
 138 451 132 440 123 438 c 0
 111 436 99 441 97 452 c 0
 84 501 63 546 35 588 c 0
207 317 m 1
 165 273 122 234 81 201 c 0
 72 194 59 194 53 202 c 0
 46 211 46 224 54 230 c 0
 96 265 140 306 184 352 c 0
 193 360 204 362 212 355 c 1
 219 426 223 504 224 588 c 0
 224 631 259 666 302 666 c 2
 539 666 l 1
 539 761 l 2
 539 772 547 781 557 781 c 0
 569 781 580 773 580 763 c 2
 580 666 l 1
 965 666 l 2
 976 666 985 657 985 647 c 0
 985 635 977 625 967 625 c 2
 302 625 l 2
 282 625 265 608 265 588 c 0
 260 208 197 -42 67 -163 c 1
 57 -170 45 -169 39 -162 c 0
 32 -152 32 -139 39 -132 c 0
 123 -54 180 95 207 317 c 1
EndSplineSet
EndChar
StartChar: uni7B9E
Encoding: 31646 31646 2
Width: 1024
Flags: HW
Fore
712 534 m 0
 712 534 l 0
 703 542 702 553 710 561 c 128
 718 569 730 571 738 564 c 0
 798 510 846 445 882 374 c 0
 886 364 883 351 873 347 c 0
 862 342 849 346 845 355 c 0
 812 423 768 482 712 534 c 0
278 553 m 0
 278 553 l 0
 284 562 295 566 304 561 c 0
 314 555 318 543 313 534 c 0
 262 453 203 384 135 329 c 1
 126 323 114 324 108 331 c 0
 100 341 100 354 109 360 c 0
 172 412 228 475 278 553 c 0
595 287 m 1
 595 287 l 0
 579.217 313.304 564 343 553 376 c 1
 476 376 l 1
 465 345 453 315 437 287 c 1
 595 287 l 1
314 680 m 1
 314 680 l 0
 331 664 346 645 358 626 c 0
 365 615 361 604 352 599 c 0
 342 593 329 595 325 604 c 1
 308 629 289 651 265 671 c 0
 262 673 259 677 258 680 c 1
 193 680 l 1
 156 643 114 613 68 592 c 0
 56 587 45 591 41 600 c 0
 36 611 40 624 49 628 c 0
 116 660 173 709 220 775 c 0
 226 784 239 787 247 782 c 0
 257 775 261 763 255 755 c 0
 230 721 l 1
 488 721 l 2
 500 721 509 713 509 702 c 0
 509 690 501 680 490 680 c 2
 314 680 l 1
719 682 m 17
 736 666 752 646 765 626 c 1
 770 615 767 604 759 599 c 0
 748 593 735 595 730 604 c 0
 710.342 634.716 688 662 664 682 c 9
 622 682 l 17
 593 647 554 617 507 593 c 1
 511 589 514 585 514 579 c 0
 511 521 503 467 488 417 c 1
 780 417 l 2
 792 417 801 409 801 398 c 0
 801 386 793 376 782 376 c 2
 595 376 l 1
 608 344 624 314 643 287 c 1
 965 287 l 2
 976 287 985 279 985 268 c 0
 985 256 977 246 967 246 c 2
 674 247 l 1
 720 192 783 150 849 117 c 1
 874.093 110.733 875.167 98.1824 870 84 c 1
 866.283 71.2404 850.605 73.5766 831 81 c 1
 831 17 l 0
 811 -29 721 -43 640 -39 c 1
 629 -39 620 -31 620 -20 c 0
 620 -8 628 2 638 2 c 0
 716 -1 786 2 790 54 c 1
 306 55 l 2
 286 55.041 269 39 269 18 c 2
 269 -69 l 2
 269 -83 275 -89 290 -89 c 2
 839 -90 l 2
 855 -90 866 -82 872 -66 c 1
 888 -17 l 2
 891 -7 902 -1 911 -4 c 0
 923 -8 930 -18 927 -29 c 2
 911 -78 l 2
 900 -114 876 -131 839 -131 c 2
 290 -130 l 2
 249 -130 228 -110 228 -69 c 2
 228 18 l 2
 228 61 263 96 306 96 c 2
 803 96 l 1
 729 135 669 185 623 247 c 1
 413 247 l 1
 341 135 229 51 82 -3 c 0
 72 -7 60 -2 56 7 c 0
 52 19 57 32 67 35 c 0
 199 83 299 154 366 247 c 1
 81 247 l 2
 70 247 60 255 60 265 c 0
 60 278 70 287 79 287 c 2
 392 287 l 1
 409 315 423 345 434 376 c 1
 248 377 l 2
 237 377 227 384 227 394 c 0
 227 407 237 417 246 417 c 2
 447 417 l 1
 462 466 470 520 473 579 c 0
 473 581 474 584 475 586 c 1
 471 588 469 591 467 594 c 0
 462 605 466 618 475 623 c 0
 551 658 600 706 627 765 c 1
 630 775 641 781 650 778 c 0
 662 774 669 763 666 754 c 0
 660 743 656 733 650 723 c 1
 965 723 l 2
 976 723 985 715 985 705 c 0
 985 692 977 682 967 682 c 2
 719 682 l 17
EndSplineSet
EndChar
StartChar: uni8B4E
Encoding: 35662 35662 3
Width: 1024
VWidth: 1024
Flags: HW
Fore
69 376 m 1
 312 376 l 1
 312 306 l 1
 69 306 l 1
 69 376 l 1
69 514 m 1
 312 514 l 1
 312 444 l 1
 69 444 l 1
 69 514 l 1
64 794 m 1
 324 794 l 1
 324 722 l 1
 64 722 l 1
 64 794 l 1
129 -70 m 1
 129 -118 l 1
 44 -118 l 1
 46.667 -81.333 48 -29 48 39 c 2
 48 226 l 1
 322 226 l 1
 322 -100 l 1
 243 -100 l 1
 243 -70 l 1
 129 -70 l 1
243 -8 m 1
 243 163 l 1
 129 163 l 1
 129 -8 l 1
 243 -8 l 1
32 653 m 1
 359 653 l 1
 359 581 l 1
 32 581 l 1
 32 653 l 1
397 379 m 1
 938 379 l 1
 938 -3 l 1
 936.667 -74.3333 916.667 -111 852 -111 c 2
 771 -110 l 1
 769.667 -82.6667 763.667 -57.3333 753 -34 c 1
 753 -22 l 1
 779 -28 799 -31.6667 813 -33 c 128
 827 -34.3333 837.167 -34.8333 843.5 -34.5 c 128
 849.833 -34.1667 853 -27.6667 853 -15 c 2
 853 194 l 1
 787 194 l 2
 730.333 194 702 219 702 269 c 2
 702 314 l 1
 638 314 l 1
 637.333 278 630 249.833 616 229.5 c 128
 602 209.167 592.333 195.667 587 189 c 1
 808 189 l 1
 808 4 l 1
 735 4 l 1
 735 15 l 1
 614 15 l 1
 614 -3 l 1
 535 -3 l 1
 537.667 27 539 59 539 103 c 2
 539 143 l 1
 524.333 131 507.667 119.333 489 108 c 1
 482 114 l 1
 482 -112 l 1
 391 -112 l 1
 395 -71.3333 397 -8 397 78 c 2
 397 379 l 1
410 630 m 1
 708 630 l 1
 664 652.667 617 670.333 567 683 c 1
 592 738 l 1
 450 738 l 1
 450 800 l 1
 826 800 l 1
 828 803 l 2
 830 806.333 832.667 806.333 836 803 c 1
 858.667 788.333 878.667 775 896 763 c 1
 905.333 754.333 904 746 892 738 c 1
 860 729 l 1
 840 713 812.333 695 777 675 c 1
 788 670 l 1
 788 663 l 1
 782 653.667 775.667 642.667 769 630 c 1
 912 630 l 1
 916 633 l 1
 918 636.333 920.667 636.333 924 633 c 0
 941.333 621 960 607.667 980 593 c 1
 988 584.333 986.667 576 976 568 c 2
 955 555 l 1
 954 555 l 1
 934 526.333 915.333 497.667 898 469 c 1
 876.667 483.667 854.333 494.667 831 502 c 1
 831 508 l 1
 847 523.333 861.667 542 875 564 c 1
 750 564 l 1
 750 458 l 1
 748.667 418.667 727.667 392 687 392 c 2
 598 392 l 1
 597.333 412 591.333 438 580 456 c 1
 580 463 l 1
 606.667 459.667 624.667 457.833 634 457.5 c 128
 643.333 457.167 651.167 457 657.5 457 c 128
 663.833 457 667 463 667 475 c 2
 667 564 l 1
 639 564 l 1
 617.667 532 591.5 502.667 560.5 476 c 128
 529.5 449.333 477 420.667 403 390 c 1
 398.333 410.667 387.333 431 370 451 c 1
 370 455 l 1
 404 462.333 438 475.5 472 494.5 c 128
 506 513.5 530 536.667 544 564 c 1
 410 564 l 1
 410 630 l 1
853 314 m 1
 779 314 l 1
 779 269 l 2
 779 259.667 782.667 255 790 255 c 2
 853 255 l 1
 853 314 l 1
482 314 m 1
 482 183 l 1
 499.333 194.333 517.167 211.167 535.5 233.5 c 128
 553.833 255.833 563 282.667 563 314 c 1
 482 314 l 1
735 69 m 1
 735 135 l 1
 614 135 l 1
 614 69 l 1
 735 69 l 1
602 738 m 1
 636 726.667 668.333 715.333 699 704 c 1
 721.667 715.333 740.667 726.667 756 738 c 1
 602 738 l 1
EndSplineSet
EndChar
